<svg width="79" height="15" viewBox="0 0 79 15" fill="none" xmlns="http://www.w3.org/2000/svg">
<path d="M10.418 4.87891L14.3281 5.45312C14.6562 5.50781 14.9297 5.72656 15.0391 6.05469C15.1484 6.35547 15.0664 6.71094 14.8203 6.92969L11.9766 9.74609L12.6602 13.7383C12.7148 14.0664 12.5781 14.3945 12.3047 14.5859C12.0312 14.8047 11.6758 14.8047 11.375 14.668L7.875 12.7812L4.34766 14.668C4.07422 14.8047 3.69141 14.8047 3.44531 14.5859C3.17188 14.3945 3.03516 14.0664 3.08984 13.7383L3.74609 9.74609L0.902344 6.92969C0.65625 6.71094 0.574219 6.35547 0.683594 6.05469C0.792969 5.72656 1.06641 5.50781 1.39453 5.45312L5.33203 4.87891L7.08203 1.24219C7.21875 0.941406 7.51953 0.75 7.875 0.75C8.20312 0.75 8.50391 0.941406 8.64062 1.24219L10.418 4.87891ZM26.168 4.87891L30.0781 5.45312C30.4062 5.50781 30.6797 5.72656 30.7891 6.05469C30.8984 6.35547 30.8164 6.71094 30.5703 6.92969L27.7266 9.74609L28.4102 13.7383C28.4648 14.0664 28.3281 14.3945 28.0547 14.5859C27.7812 14.8047 27.4258 14.8047 27.125 14.668L23.625 12.7812L20.0977 14.668C19.8242 14.8047 19.4414 14.8047 19.1953 14.5859C18.9219 14.3945 18.7852 14.0664 18.8398 13.7383L19.4961 9.74609L16.6523 6.92969C16.4062 6.71094 16.3242 6.35547 16.4336 6.05469C16.543 5.72656 16.8164 5.50781 17.1445 5.45312L21.082 4.87891L22.832 1.24219C22.9688 0.941406 23.2695 0.75 23.625 0.75C23.9531 0.75 24.2539 0.941406 24.3906 1.24219L26.168 4.87891ZM41.918 4.87891L45.8281 5.45312C46.1562 5.50781 46.4297 5.72656 46.5391 6.05469C46.6484 6.35547 46.5664 6.71094 46.3203 6.92969L43.4766 9.74609L44.1602 13.7383C44.2148 14.0664 44.0781 14.3945 43.8047 14.5859C43.5312 14.8047 43.1758 14.8047 42.875 14.668L39.375 12.7812L35.8477 14.668C35.5742 14.8047 35.1914 14.8047 34.9453 14.5859C34.6719 14.3945 34.5352 14.0664 34.5898 13.7383L35.2461 9.74609L32.4023 6.92969C32.1562 6.71094 32.0742 6.35547 32.1836 6.05469C32.293 5.72656 32.5664 5.50781 32.8945 5.45312L36.832 4.87891L38.582 1.24219C38.7188 0.941406 39.0195 0.75 39.375 0.75C39.7031 0.75 40.0039 0.941406 40.1406 1.24219L41.918 4.87891ZM57.668 4.87891L61.5781 5.45312C61.9062 5.50781 62.1797 5.72656 62.2891 6.05469C62.3984 6.35547 62.3164 6.71094 62.0703 6.92969L59.2266 9.74609L59.9102 13.7383C59.9648 14.0664 59.8281 14.3945 59.5547 14.5859C59.2812 14.8047 58.9258 14.8047 58.625 14.668L55.125 12.7812L51.5977 14.668C51.3242 14.8047 50.9414 14.8047 50.6953 14.5859C50.4219 14.3945 50.2852 14.0664 50.3398 13.7383L50.9961 9.74609L48.1523 6.92969C47.9062 6.71094 47.8242 6.35547 47.9336 6.05469C48.043 5.72656 48.3164 5.50781 48.6445 5.45312L52.582 4.87891L54.332 1.24219C54.4688 0.941406 54.7695 0.75 55.125 0.75C55.4531 0.75 55.7539 0.941406 55.8906 1.24219L57.668 4.87891ZM73.418 4.87891L77.3281 5.45312C77.6562 5.50781 77.9297 5.72656 78.0391 6.05469C78.1484 6.35547 78.0664 6.71094 77.8203 6.92969L74.9766 9.74609L75.6602 13.7383C75.7148 14.0664 75.5781 14.3945 75.3047 14.5859C75.0312 14.8047 74.6758 14.8047 74.375 14.668L70.875 12.7812L67.3477 14.668C67.0742 14.8047 66.6914 14.8047 66.4453 14.5859C66.1719 14.3945 66.0352 14.0664 66.0898 13.7383L66.7461 9.74609L63.9023 6.92969C63.6562 6.71094 63.5742 6.35547 63.6836 6.05469C63.793 5.72656 64.0664 5.50781 64.3945 5.45312L68.332 4.87891L70.082 1.24219C70.2188 0.941406 70.5195 0.75 70.875 0.75C71.2031 0.75 71.5039 0.941406 71.6406 1.24219L73.418 4.87891Z" fill="#0099FF"/>
</svg>
