<svg width="16" height="17" viewBox="0 0 16 17" fill="none" xmlns="http://www.w3.org/2000/svg">
<path d="M11.25 7.40625C11.4844 7.40625 11.6836 7.48828 11.8477 7.65234C12.0117 7.81641 12.0938 8.01562 12.0938 8.25C12.0938 8.48438 12.0117 8.68359 11.8477 8.84766C11.6836 9.01172 11.4844 9.09375 11.25 9.09375H8.71875V11.625C8.71875 11.8594 8.63672 12.0586 8.47266 12.2227C8.30859 12.3867 8.10938 12.4688 7.875 12.4688C7.64062 12.4688 7.44141 12.3867 7.27734 12.2227C7.11328 12.0586 7.03125 11.8594 7.03125 11.625V9.09375H4.5C4.26562 9.09375 4.06641 9.01172 3.90234 8.84766C3.73828 8.68359 3.65625 8.48438 3.65625 8.25C3.65625 8.01562 3.73828 7.81641 3.90234 7.65234C4.06641 7.48828 4.26562 7.40625 4.5 7.40625H7.03125V4.875C7.03125 4.64062 7.11328 4.44141 7.27734 4.27734C7.44141 4.11328 7.64062 4.03125 7.875 4.03125C8.10938 4.03125 8.30859 4.11328 8.47266 4.27734C8.63672 4.44141 8.71875 4.64062 8.71875 4.875V7.40625H11.25ZM13.5 0.375C14.1328 0.375 14.6602 0.597656 15.082 1.04297C15.5273 1.46484 15.75 1.99219 15.75 2.625V13.875C15.75 14.5078 15.5273 15.0352 15.082 15.457C14.6602 15.9023 14.1328 16.125 13.5 16.125H2.25C1.61719 16.125 1.07812 15.9023 0.632812 15.457C0.210938 15.0352 0 14.5078 0 13.875V2.625C0 1.99219 0.210938 1.46484 0.632812 1.04297C1.07812 0.597656 1.61719 0.375 2.25 0.375H13.5ZM14.0625 13.875V2.625C14.0625 2.46094 14.0039 2.33203 13.8867 2.23828C13.793 2.12109 13.6641 2.0625 13.5 2.0625H2.25C2.08594 2.0625 1.94531 2.12109 1.82812 2.23828C1.73438 2.33203 1.6875 2.46094 1.6875 2.625V13.875C1.6875 14.0391 1.73438 14.1797 1.82812 14.2969C1.94531 14.3906 2.08594 14.4375 2.25 14.4375H13.5C13.6641 14.4375 13.793 14.3906 13.8867 14.2969C14.0039 14.1797 14.0625 14.0391 14.0625 13.875Z" fill="#0099FF"/>
</svg>
