<svg width="25" height="24" viewBox="0 0 25 24" fill="none" xmlns="http://www.w3.org/2000/svg">
<path d="M23.625 3.32812C23.9062 3.60938 24.0469 3.95312 24.0469 4.35938V15C24.0469 15.8125 23.75 16.5156 23.1562 17.1094C22.5625 17.7031 21.8594 18 21.0469 18H12.0469C11.2344 18 10.5312 17.7188 9.9375 17.1562C9.34375 16.5625 9.04688 15.8438 9.04688 15V3C9.04688 2.46875 9.17188 1.96875 9.42188 1.5C9.70312 1.03125 10.0781 0.671875 10.5469 0.421875C11.0156 0.140625 11.5156 0 12.0469 0H19.6875C20.0938 0 20.4375 0.140625 20.7188 0.421875L23.625 3.32812ZM21.7969 15V6H19.5469C19.1406 6 18.7812 5.85938 18.4688 5.57812C18.1875 5.26562 18.0469 4.90625 18.0469 4.5V2.25H12.0469C11.8281 2.25 11.6406 2.32813 11.4844 2.48438C11.3594 2.60938 11.2969 2.78125 11.2969 3V15C11.2969 15.2188 11.3594 15.4062 11.4844 15.5625C11.6406 15.6875 11.8281 15.75 12.0469 15.75H21.0469C21.2656 15.75 21.4375 15.6875 21.5625 15.5625C21.7188 15.4062 21.7969 15.2188 21.7969 15ZM12.7969 21V19.5H15.0469V21C15.0469 21.8125 14.75 22.5156 14.1562 23.1094C13.5625 23.7031 12.8594 24 12.0469 24H3.04688C2.23438 24 1.53125 23.7031 0.9375 23.1094C0.34375 22.5469 0.046875 21.8438 0.046875 21V9C0.046875 8.15625 0.328125 7.45312 0.890625 6.89062C1.48438 6.29688 2.20312 6 3.04688 6H7.54688V8.25H3.04688C2.82812 8.25 2.64062 8.32812 2.48438 8.48438C2.35938 8.60938 2.29688 8.78125 2.29688 9V21C2.29688 21.2188 2.35938 21.3906 2.48438 21.5156C2.64062 21.6719 2.82812 21.75 3.04688 21.75H12.0469C12.2656 21.75 12.4375 21.6719 12.5625 21.5156C12.7188 21.3906 12.7969 21.2188 12.7969 21Z" fill="#070707" fill-opacity="0.32"/>
</svg>
