<svg width="21" height="24" viewBox="0 0 21 24" fill="none" xmlns="http://www.w3.org/2000/svg">
<path d="M2.48438 21.8906L1.5 6H19.5L18.5156 21.8906C18.4844 22.4844 18.25 22.9844 17.8125 23.3906C17.375 23.7969 16.8594 24 16.2656 24H4.73438C4.14062 24 3.625 23.7969 3.1875 23.3906C2.75 22.9844 2.51562 22.4844 2.48438 21.8906ZM20.25 1.5C20.4688 1.5 20.6406 1.57812 20.7656 1.73438C20.9219 1.85938 21 2.03125 21 2.25V3.75C21 3.96875 20.9219 4.15625 20.7656 4.3125C20.6406 4.4375 20.4688 4.5 20.25 4.5H0.75C0.53125 4.5 0.34375 4.4375 0.1875 4.3125C0.0625 4.15625 0 3.96875 0 3.75V2.25C0 2.03125 0.0625 1.85938 0.1875 1.73438C0.34375 1.57812 0.53125 1.5 0.75 1.5H6L6.5625 0.421875C6.6875 0.140625 6.90625 0 7.21875 0H13.7812C14.0938 0 14.3125 0.140625 14.4375 0.421875L15 1.5H20.25Z" fill="#070707"/>
</svg>
