<svg width="16" height="16" viewBox="0 0 16 16" fill="none" xmlns="http://www.w3.org/2000/svg">
<path d="M3.25582 9H0.751344C0.31306 9 0 8.65625 0 8.25V0.75C0 0.3125 0.31306 0 0.751344 0H3.25582C3.6628 0 4.00717 0.3125 4.00717 0.75V8.25C4.00717 8.65625 3.6628 9 3.25582 9ZM2.00358 1.25C1.5653 1.25 1.25224 1.5625 1.25224 2C1.25224 2.40625 1.5653 2.75 2.00358 2.75C2.41056 2.75 2.75493 2.40625 2.75493 2C2.75493 1.5625 2.41056 1.25 2.00358 1.25ZM12.0215 13.4375C12.0215 15.75 10.5188 16 9.76747 16C9.11004 16 8.82829 14.75 8.70307 14.1875C8.51523 13.5 8.3587 12.8125 7.88911 12.3438C6.88732 11.3125 6.35512 10.0312 5.10288 8.8125C5.04027 8.71875 5.00896 8.625 5.00896 8.53125V1.84375C5.00896 1.65625 5.16549 1.5 5.35332 1.46875C5.85422 1.46875 6.51165 1.1875 7.01254 0.96875C8.01433 0.53125 9.23527 0 10.738 0H10.8319C12.178 0 13.7746 0 14.4008 0.90625C14.6825 1.28125 14.7451 1.75 14.5886 2.3125C15.1208 2.84375 15.3712 3.84375 15.1208 4.65625C15.653 5.375 15.7156 6.40625 15.4025 7.125C15.7782 7.5 16.0287 8.09375 15.9974 8.65625C15.9974 9.625 15.1834 10.5 14.1503 10.5H10.9571C11.2075 11.375 12.0215 12.125 12.0215 13.4375Z" fill="#070707"/>
</svg>
