<svg width="23" height="19" viewBox="0 0 23 19" fill="none" xmlns="http://www.w3.org/2000/svg">
<path d="M17.4727 10.6211L20.0039 13.1523L19.0547 14.1016L15.5742 17.582C15.5039 17.6523 15.3984 17.7109 15.2578 17.7578L12.7617 18.25C12.6445 18.2734 12.5391 18.2383 12.4453 18.1445C12.375 18.0742 12.3516 17.9805 12.375 17.8633L12.8672 15.3672C12.9141 15.2266 12.9727 15.1211 13.043 15.0508L17.4727 10.6211ZM22.1133 9.25C22.3711 9.48438 22.5 9.77734 22.5 10.1289C22.5 10.4805 22.3711 10.7852 22.1133 11.043L20.7773 12.3789L18.2461 9.84766L19.582 8.51172C19.8398 8.25391 20.1445 8.125 20.4961 8.125C20.8477 8.125 21.1406 8.25391 21.375 8.51172L22.1133 9.25ZM12.6914 18.25C12.7148 18.25 12.7383 18.25 12.7617 18.25C12.7383 18.25 12.6914 18.25 12.6211 18.25C12.6445 18.25 12.6562 18.25 12.6562 18.25C12.6797 18.25 12.6914 18.25 12.6914 18.25ZM4.67578 7.94922C3.80859 7.05859 3.375 5.99219 3.375 4.75C3.375 3.50781 3.80859 2.45313 4.67578 1.58594C5.56641 0.695313 6.63281 0.25 7.875 0.25C9.11719 0.25 10.1719 0.695313 11.0391 1.58594C11.9297 2.45313 12.375 3.50781 12.375 4.75C12.375 5.99219 11.9297 7.05859 11.0391 7.94922C10.1719 8.81641 9.11719 9.25 7.875 9.25C6.63281 9.25 5.56641 8.81641 4.67578 7.94922ZM5.87109 2.78125C5.33203 3.32031 5.0625 3.97656 5.0625 4.75C5.0625 5.52344 5.33203 6.19141 5.87109 6.75391C6.43359 7.29297 7.10156 7.5625 7.875 7.5625C8.64844 7.5625 9.30469 7.29297 9.84375 6.75391C10.4062 6.19141 10.6875 5.52344 10.6875 4.75C10.6875 3.97656 10.4062 3.32031 9.84375 2.78125C9.30469 2.21875 8.64844 1.9375 7.875 1.9375C7.10156 1.9375 6.43359 2.21875 5.87109 2.78125ZM11.4961 16.5625L11.2852 17.6523C11.2383 17.8398 11.2383 18.0391 11.2852 18.25H1.125C0.820312 18.25 0.550781 18.1328 0.316406 17.8984C0.105469 17.6875 0 17.4297 0 17.125C0 15.4141 0.597656 13.9609 1.79297 12.7656C3.01172 11.5469 4.47656 10.9375 6.1875 10.9375H9.5625C11.2266 10.9375 12.6562 11.5117 13.8516 12.6602L12.6562 13.8555C11.7656 13.0352 10.7344 12.625 9.5625 12.625H6.1875C5.03906 12.625 4.04297 13 3.19922 13.75C2.35547 14.5 1.86328 15.4375 1.72266 16.5625H11.4961Z" fill="#0099FF"/>
</svg>
