<svg width="18" height="17" viewBox="0 0 18 17" fill="none" xmlns="http://www.w3.org/2000/svg">
<path d="M5.90625 14.4375C6.14062 14.4375 6.33984 14.5195 6.50391 14.6836C6.66797 14.8477 6.75 15.0469 6.75 15.2812C6.75 15.5156 6.66797 15.7148 6.50391 15.8789C6.33984 16.043 6.14062 16.125 5.90625 16.125H3.375C2.4375 16.125 1.64062 15.7969 0.984375 15.1406C0.328125 14.4844 0 13.6875 0 12.75V3.75C0 2.8125 0.328125 2.01563 0.984375 1.35938C1.64062 0.703125 2.4375 0.375 3.375 0.375H5.90625C6.14062 0.375 6.33984 0.457031 6.50391 0.621094C6.66797 0.785156 6.75 0.984375 6.75 1.21875C6.75 1.45313 6.66797 1.65234 6.50391 1.81641C6.33984 1.98047 6.14062 2.0625 5.90625 2.0625H3.375C2.90625 2.0625 2.50781 2.22656 2.17969 2.55469C1.85156 2.88281 1.6875 3.28125 1.6875 3.75V12.75C1.6875 13.2188 1.85156 13.6172 2.17969 13.9453C2.50781 14.2734 2.90625 14.4375 3.375 14.4375H5.90625ZM17.7188 7.65234C17.9062 7.81641 18 8.02734 18 8.28516C18 8.51953 17.9062 8.71875 17.7188 8.88281L12.375 13.5938C12.1406 13.7812 11.8711 13.875 11.5664 13.875C11.4023 13.875 11.2383 13.8398 11.0742 13.7695C10.6289 13.5586 10.4062 13.207 10.4062 12.7148V10.7812H6.1875C5.92969 10.7812 5.69531 10.7227 5.48438 10.6055C5.27344 10.4648 5.09766 10.2891 4.95703 10.0781C4.83984 9.86719 4.78125 9.63281 4.78125 9.375V7.125C4.78125 6.72656 4.91016 6.39844 5.16797 6.14062C5.44922 5.85938 5.78906 5.71875 6.1875 5.71875H10.4062V3.78516C10.4062 3.29297 10.6289 2.94141 11.0742 2.73047C11.543 2.51953 11.9766 2.57813 12.375 2.90625L17.7188 7.65234ZM12.0938 11.5547L15.8906 8.25L12.0938 4.94531V7.40625H6.46875V9.09375H12.0938V11.5547Z" fill="#FF4747"/>
</svg>
