<svg width="24" height="18" viewBox="0 0 24 18" fill="none" xmlns="http://www.w3.org/2000/svg">
<path d="M23.875 8.31697C23.9583 8.53125 24 8.75893 24 9C24 9.24107 23.9583 9.46875 23.875 9.68304C22.7083 12.2009 21.0694 14.2232 18.9583 15.75C16.8472 17.25 14.5278 18 12 18C9.47222 18 7.15278 17.25 5.04167 15.75C2.93056 14.2232 1.29167 12.2009 0.125 9.68304C0.0416667 9.46875 0 9.24107 0 9C0 8.75893 0.0416667 8.53125 0.125 8.31697C1.29167 5.79911 2.93056 3.79018 5.04167 2.29018C7.15278 0.763393 9.47222 0 12 0C14.5278 0 16.8472 0.763393 18.9583 2.29018C21.0694 3.79018 22.7083 5.79911 23.875 8.31697ZM6.20833 14.183C7.98611 15.442 9.91667 16.0714 12 16.0714C14.0833 16.0714 16.0139 15.442 17.7917 14.183C19.5694 12.8973 20.9722 11.1696 22 9C20.9722 6.83036 19.5694 5.11607 17.7917 3.85714C16.0139 2.57143 14.0833 1.92857 12 1.92857C9.91667 1.92857 7.98611 2.57143 6.20833 3.85714C4.43056 5.11607 3.02778 6.83036 2 9C3.02778 11.1696 4.43056 12.8973 6.20833 14.183ZM8.20833 5.38393C9.26389 4.36607 10.5278 3.85714 12 3.85714C13.4722 3.85714 14.7222 4.36607 15.75 5.38393C16.8056 6.375 17.3333 7.58036 17.3333 9C17.3333 9.9375 17.0972 10.808 16.625 11.6116C16.1528 12.3884 15.5 13.0045 14.6667 13.4598C13.8611 13.9152 12.9722 14.1429 12 14.1429C10.5278 14.1429 9.26389 13.6473 8.20833 12.6563C7.18056 11.6384 6.66667 10.4196 6.66667 9C6.66667 7.58036 7.18056 6.375 8.20833 5.38393ZM9.625 11.2902C10.2917 11.9063 11.0833 12.2143 12 12.2143C12.9167 12.2143 13.6944 11.9063 14.3333 11.2902C15 10.6473 15.3333 9.88393 15.3333 9C15.3333 8.41072 15.1806 7.875 14.875 7.39286C14.5972 6.88393 14.1944 6.49554 13.6667 6.22768C13.1667 5.93304 12.6111 5.78571 12 5.78571C12 5.78571 11.9861 5.78571 11.9583 5.78571C11.9306 5.78571 11.9167 5.78571 11.9167 5.78571C11.9722 6.02679 12 6.24107 12 6.42857C12 7.15179 11.7361 7.76786 11.2083 8.27679C10.7083 8.75893 10.0833 9 9.33333 9C9.13889 9 8.91667 8.97322 8.66667 8.91964C8.66667 8.91964 8.66667 8.93304 8.66667 8.95982C8.66667 8.98661 8.66667 9 8.66667 9C8.66667 9.88393 8.98611 10.6473 9.625 11.2902Z" fill="#0099FF"/>
</svg>
