<svg width="14" height="12" viewBox="0 0 14 12" fill="none" xmlns="http://www.w3.org/2000/svg">
<path d="M0.304858 6.71531L5.30765 11.7186C5.49525 11.9062 5.74539 12 5.99553 12C6.27694 12 6.52708 11.9062 6.71468 11.7186C7.12116 11.3433 7.12116 10.6866 6.71468 10.3114L3.4316 6.99674H12.9994C13.5623 6.99674 14 6.55896 14 5.99609C14 5.46449 13.5623 4.99544 12.9994 4.99544H3.4316L6.71468 1.71205C7.12116 1.33681 7.12116 0.68013 6.71468 0.304886C6.33948 -0.101629 5.68286 -0.101629 5.30765 0.304886L0.304858 5.30814C-0.101619 5.68339 -0.101619 6.34006 0.304858 6.71531Z" fill="white"/>
</svg>
