<svg viewBox="0 0 18 18" fill="none" xmlns="http://www.w3.org/2000/svg">
<path d="M17.7361 16.5586L13.0205 11.8477C14.0411 10.6172 14.6041 9.03516 14.6041 7.3125C14.6041 3.30469 11.2962 0 7.28446 0C3.23754 0 0 3.30469 0 7.3125C0 11.3555 3.27273 14.625 7.28446 14.625C8.97361 14.625 10.5572 14.0625 11.824 13.043L16.5396 17.7539C16.7155 17.9297 16.9267 18 17.173 18C17.3842 18 17.5953 17.9297 17.7361 17.7539C18.088 17.4375 18.088 16.9102 17.7361 16.5586ZM1.68915 7.3125C1.68915 4.21875 4.18768 1.6875 7.31965 1.6875C10.4164 1.6875 12.9501 4.21875 12.9501 7.3125C12.9501 10.4414 10.4164 12.9375 7.31965 12.9375C4.18768 12.9375 1.68915 10.4414 1.68915 7.3125Z"/>
</svg>
