<svg width="18" height="12" viewBox="0 0 18 12" fill="none" xmlns="http://www.w3.org/2000/svg">
<path d="M17.6165 0.825C17.7168 0.375 17.6165 0 17.0148 0H15.0426C14.5411 0 14.3071 0.3 14.1734 0.6375C14.1734 0.6375 13.1706 3.375 11.7666 5.175C11.2986 5.6625 11.0981 5.85 10.8306 5.85C10.7304 5.85 10.5298 5.6625 10.5298 5.2125V0.825C10.5298 0.2625 10.3961 0 9.96152 0H6.88615C6.55187 0 6.38473 0.2625 6.38473 0.525C6.38473 1.05 7.08672 1.1625 7.15357 2.6625V5.925C7.15357 6.6375 7.05329 6.7875 6.78587 6.7875C6.11731 6.7875 4.51277 4.0125 3.54336 0.8625C3.34279 0.2625 3.14222 0 2.64081 0H0.668558C0.133712 0 0 0.3 0 0.6375C0 1.2375 0.668558 4.125 3.1088 7.9875C4.74676 10.6125 7.05329 12 9.12582 12C10.3627 12 10.5298 11.7 10.5298 11.175C10.5298 8.6625 10.4295 8.4 11.0312 8.4C11.3321 8.4 11.8335 8.5875 13.0035 9.8625C14.3406 11.3625 14.5746 12 15.31 12H17.2822C17.8505 12 18.1179 11.7 17.9508 11.0625C17.5831 9.7875 15.076 7.0875 14.9423 6.9C14.6414 6.4875 14.7417 6.3 14.9423 5.925C14.9423 5.925 17.3491 2.1 17.6165 0.825Z" fill="#0099FF"/>
</svg>
