<svg width="24" height="24" viewBox="0 0 24 24" fill="none" xmlns="http://www.w3.org/2000/svg">
<g clip-path="url(#clip0_214_375)">
<path d="M23.4546 9.27272C23.7561 9.27272 24.0001 9.02874 24.0001 8.72725C24.0001 8.42575 23.7561 8.18182 23.4546 8.18182H21.8182V5.99999H23.4546C23.7561 5.99999 24.0001 5.75602 24.0001 5.45452C24.0001 5.15302 23.7561 4.90909 23.4546 4.90909H21.8182V4.36362C21.8182 3.16033 20.8397 2.18179 19.6364 2.18179H19.0909V0.545421C19.0909 0.243972 18.847 0 18.5455 0C18.244 0 18 0.243972 18 0.545472V2.18184H15.8182V0.545472C15.8182 0.243972 15.5742 0 15.2728 0C14.9713 0 14.7273 0.243972 14.7273 0.545472V2.18184H12.5454V0.545472C12.5454 0.243972 12.3015 0 12 0C11.6986 0 11.4546 0.243972 11.4546 0.545472V2.18184H9.27272V0.545472C9.27272 0.243972 9.02875 0 8.7273 0C8.42585 0 8.18182 0.243972 8.18182 0.545472V2.18184H5.99999V0.545472C5.99999 0.243972 5.75602 0 5.45457 0C5.15312 0 4.90909 0.243972 4.90909 0.545472V2.18184H4.36362C3.16033 2.18184 2.18179 3.16033 2.18179 4.36367V4.90909H0.545421C0.243972 4.90909 0 5.15307 0 5.45457C0 5.75607 0.243972 6.00004 0.545472 6.00004H2.18184V8.18182H0.545472C0.243972 8.18182 0 8.4258 0 8.7273C0 9.0288 0.243972 9.27277 0.545472 9.27277H2.18184V11.4546H0.545472C0.243972 11.4546 0 11.6985 0 12C0 12.3015 0.243972 12.5455 0.545472 12.5455H2.18184V14.7273H0.545472C0.243972 14.7273 0 14.9713 0 15.2728C0 15.5743 0.243972 15.8182 0.545472 15.8182H2.18184V18H0.545472C0.243972 18 0 18.244 0 18.5455C0 18.847 0.243972 19.091 0.545472 19.091H2.18184V19.6364C2.18184 20.8397 3.16033 21.8182 4.36367 21.8182H4.90909V23.4546C4.90909 23.7561 5.15307 24.0001 5.45457 24.0001C5.75607 24.0001 6.00004 23.7561 6.00004 23.4546V21.8182H8.18182V23.4546C8.18182 23.7561 8.4258 24.0001 8.7273 24.0001C9.0288 24.0001 9.27277 23.7561 9.27277 23.4546V21.8182H11.4546V23.4546C11.4546 23.7561 11.6985 24.0001 12 24.0001C12.3015 24.0001 12.5455 23.7561 12.5455 23.4546V21.8182H14.7273V23.4546C14.7273 23.7561 14.9713 24.0001 15.2728 24.0001C15.5743 24.0001 15.8182 23.7561 15.8182 23.4546V21.8182H18V23.4546C18 23.7561 18.244 24.0001 18.5455 24.0001C18.847 24.0001 19.091 23.7561 19.091 23.4546V21.8182H19.6364C20.8397 21.8182 21.8182 20.8397 21.8182 19.6364V19.0909H23.4546C23.7561 19.0909 24.0001 18.8469 24.0001 18.5454C24.0001 18.2439 23.7561 18 23.4546 18H21.8182V15.8181H23.4546C23.7561 15.8181 24.0001 15.5742 24.0001 15.2727C24.0001 14.9712 23.7561 14.7273 23.4546 14.7273H21.8182V12.5454H23.4546C23.7561 12.5454 24.0001 12.3015 24.0001 12C24.0001 11.6985 23.7561 11.4546 23.4546 11.4546H21.8182V9.27272H23.4546ZM19.6364 19.0909C19.6364 19.3924 19.3924 19.6364 19.0909 19.6364H4.90909C4.60759 19.6364 4.36362 19.3924 4.36362 19.0909V4.90909C4.36362 4.60759 4.60759 4.36362 4.90909 4.36362H19.0909C19.3924 4.36362 19.6364 4.60759 19.6364 4.90909V19.0909Z" fill="#070707" fill-opacity="0.24"/>
<path d="M18.5455 5.45508H5.45459V18.546H18.5455V5.45508Z" fill="#070707" fill-opacity="0.24"/>
</g>
<defs>
<clipPath id="clip0_214_375">
<rect width="24" height="24" fill="white"/>
</clipPath>
</defs>
</svg>
