<svg width="24" height="24" viewBox="0 0 24 24" fill="none" xmlns="http://www.w3.org/2000/svg">
<g clip-path="url(#clip0_214_472)">
<path d="M18.7788 0H5.22117C2.33648 0 0 2.33648 0 5.22117V18.7788C0 21.6635 2.33648 24 5.22117 24H18.7788C21.6635 24 24 21.6635 24 18.7788V5.22117C24 2.33648 21.6635 0 18.7788 0ZM20.2321 18.4046C20.1581 18.5482 20.0102 18.6396 19.8448 18.6396H14.2973C14.1407 18.6396 13.9971 18.5569 13.9188 18.422L11.9695 15.0326L9.66787 18.4482C9.58564 18.5656 9.45033 18.6396 9.30674 18.6396H4.15518C3.98985 18.6396 3.84191 18.5482 3.76795 18.4046C3.69398 18.2611 3.70268 18.0914 3.79405 17.9565L8.12763 11.7128L4.03336 6.05221C3.9372 5.91733 3.92458 5.74329 3.99855 5.59536C4.07252 5.45178 4.2248 5.36041 4.38579 5.36041H10.029C10.1856 5.36041 10.3336 5.44307 10.4075 5.58231L12.0261 8.4235L13.9323 5.5562C14.0145 5.43437 14.1498 5.36041 14.2978 5.36041H19.5407C19.706 5.36041 19.854 5.45178 19.9279 5.59536C20.0067 5.74329 19.9932 5.91733 19.8979 6.04786L15.8428 11.7128L20.2025 17.9565C20.2973 18.087 20.306 18.2611 20.2321 18.4046Z" fill="#070707" fill-opacity="0.24"/>
</g>
<defs>
<clipPath id="clip0_214_472">
<rect width="24" height="24" fill="white"/>
</clipPath>
</defs>
</svg>
