<svg width="16" height="16" viewBox="0 0 16 16" fill="none" xmlns="http://www.w3.org/2000/svg">
<path d="M15.5 8C15.5 12.2812 12 15.75 7.71875 15.75C4.15625 15.75 1.1875 13.375 0.25 10.125L3.21875 11.3438C3.4375 12.3438 4.3125 13.125 5.375 13.125C6.59375 13.125 7.625 12.0938 7.5625 10.8125L10.2188 8.9375C11.8438 8.96875 13.2188 7.65625 13.2188 6.03125C13.2188 4.40625 11.9062 3.09375 10.2812 3.09375C8.65625 3.09375 7.34375 4.40625 7.34375 6.03125V6.0625L5.5 8.71875C5.03125 8.71875 4.53125 8.84375 4.15625 9.125L0 7.40625C0.3125 3.40625 3.65625 0.25 7.71875 0.25C12 0.25 15.5 3.71875 15.5 8ZM4.84375 12.0312L3.90625 11.625C4.0625 12 4.375 12.2812 4.75 12.4375C5.59375 12.7812 6.5625 12.375 6.90625 11.5625C7.0625 11.1562 7.0625 10.6875 6.90625 10.2812C6.75 9.875 6.4375 9.5625 6.03125 9.40625C5.625 9.21875 5.1875 9.21875 4.8125 9.375L5.78125 9.78125C6.40625 10.0312 6.6875 10.75 6.4375 11.375C6.1875 12 5.46875 12.2812 4.84375 12.0312ZM10.2812 7.96875C9.21875 7.96875 8.34375 7.09375 8.34375 6.03125C8.34375 4.9375 9.21875 4.0625 10.2812 4.0625C11.3438 4.0625 12.2188 4.9375 12.2188 6.03125C12.2188 7.09375 11.375 7.96875 10.2812 7.96875ZM10.2812 7.46875C11.0938 7.46875 11.75 6.8125 11.75 6C11.75 5.21875 11.0938 4.5625 10.2812 4.5625C9.46875 4.5625 8.8125 5.21875 8.8125 6C8.8125 6.8125 9.46875 7.46875 10.2812 7.46875Z" fill="#070707" fill-opacity="0.64"/>
</svg>
