<svg width="13" height="15" viewBox="0 0 13 15" fill="none" xmlns="http://www.w3.org/2000/svg">
<path d="M7.4375 9.0625H4.8125C2.13281 9.0625 0 11.2227 0 13.875C0 14.3672 0.382812 14.75 0.875 14.75H11.375C11.8398 14.75 12.25 14.3672 12.25 13.875C12.25 11.2227 10.0898 9.0625 7.4375 9.0625ZM1.3125 13.4375C1.53125 11.7148 3.00781 10.375 4.8125 10.375H7.4375C9.21484 10.375 10.6914 11.7148 10.9102 13.4375H1.3125ZM6.125 7.75C8.03906 7.75 9.625 6.19141 9.625 4.25C9.625 2.33594 8.03906 0.75 6.125 0.75C4.18359 0.75 2.625 2.33594 2.625 4.25C2.625 6.19141 4.18359 7.75 6.125 7.75ZM6.125 2.0625C7.32812 2.0625 8.3125 3.04688 8.3125 4.25C8.3125 5.48047 7.32812 6.4375 6.125 6.4375C4.89453 6.4375 3.9375 5.48047 3.9375 4.25C3.9375 3.04688 4.89453 2.0625 6.125 2.0625Z" fill="#070707" fill-opacity="0.64"/>
</svg>
