<svg width="32" height="32" viewBox="0 0 32 32" fill="none" xmlns="http://www.w3.org/2000/svg">
<path d="M9.16422 16.0703C8.26602 16.3584 7.55242 17.4842 7.4751 18.4884C7.94707 19.0687 8.5519 19.5349 9.24208 19.8447C8.80578 18.7754 8.78291 17.5034 9.39414 16.5903C9.29436 16.4297 9.21921 16.2548 9.16422 16.0703Z" fill="#070707" fill-opacity="0.24"/>
<path d="M10.077 13.6612C10.237 13.5614 10.4114 13.4863 10.596 13.4313C10.3079 12.5331 9.18267 11.8195 8.17788 11.7422C7.59497 12.2163 7.12722 12.8243 6.81738 13.5187C7.17364 13.3715 7.54909 13.2595 7.93039 13.2131C8.75916 13.1109 9.50203 13.2724 10.077 13.6612Z" fill="#070707" fill-opacity="0.24"/>
<path d="M13.9893 17.7513C13.3536 17.7513 12.7851 17.5844 12.3237 17.2734C12.1638 17.3738 11.9888 17.4484 11.8037 17.5034C12.0918 18.4016 13.217 19.1152 14.2218 19.1925C14.8047 18.7183 15.2725 18.1104 15.5823 17.416C15.2261 17.5631 14.8506 17.6752 14.4693 17.7216C14.3061 17.7416 14.1456 17.7513 13.9893 17.7513Z" fill="#070707" fill-opacity="0.24"/>
<path d="M11.6812 13.3925C11.87 13.4362 12.0455 13.5093 12.2113 13.5994C12.6449 12.7562 12.3446 11.4538 11.6817 10.6905C11.5233 10.6745 11.3628 10.666 11.2001 10.666C10.5969 10.666 10.022 10.7828 9.48975 10.9866C10.5532 11.4339 11.4673 12.3157 11.6812 13.3925Z" fill="#070707" fill-opacity="0.24"/>
<path d="M11.2 20.2673C11.8032 20.2673 12.3781 20.1505 12.9103 19.9468C11.8469 19.4993 10.9328 18.6177 10.7189 17.5409C10.5301 17.4972 10.3546 17.4241 10.1888 17.334C9.75522 18.1772 10.0555 19.4796 10.7184 20.2428C10.8767 20.2588 11.0373 20.2673 11.2 20.2673Z" fill="#070707" fill-opacity="0.24"/>
<path d="M13.2358 14.8623C14.134 14.5742 14.847 13.4484 14.9249 12.4442C14.4535 11.8638 13.8481 11.3977 13.1579 11.0879C13.5942 12.1572 13.6171 13.4292 13.0059 14.3422C13.1056 14.5027 13.1808 14.6778 13.2358 14.8623Z" fill="#070707" fill-opacity="0.24"/>
<path d="M9.12621 14.9863C9.16936 14.7997 9.24137 14.6258 9.33054 14.461C8.9849 14.2844 8.54492 14.2135 8.05853 14.2722C7.44526 14.3464 6.85159 14.6134 6.42441 14.9858C6.40834 15.1442 6.3999 15.3047 6.3999 15.4674C6.3999 16.0706 6.5167 16.6455 6.72049 17.1778C7.16782 16.1143 8.04941 15.2002 9.12621 14.9863Z" fill="#070707" fill-opacity="0.24"/>
<path d="M21.9265 14.9863C21.9697 14.7997 22.0417 14.6258 22.1308 14.461C21.7852 14.2844 21.3447 14.2135 20.8588 14.2722C20.2455 14.3464 19.6519 14.6134 19.2247 14.9858C19.2086 15.1442 19.2002 15.3047 19.2002 15.4674C19.2002 16.0706 19.317 16.6455 19.5208 17.1778C19.9681 16.1143 20.8497 15.2002 21.9265 14.9863Z" fill="#070707" fill-opacity="0.24"/>
<path d="M11.2 16.5338C11.7892 16.5338 12.2668 16.0563 12.2668 15.4671C12.2668 14.878 11.7892 14.4004 11.2 14.4004C10.6109 14.4004 10.1333 14.878 10.1333 15.4671C10.1333 16.0563 10.6109 16.5338 11.2 16.5338Z" fill="#070707" fill-opacity="0.24"/>
<path d="M13.2736 15.9478C13.2299 16.1345 13.1579 16.3089 13.0688 16.4732C13.4145 16.6503 13.855 16.7212 14.3409 16.6614C14.9541 16.5873 15.5473 16.3202 15.975 15.9478C15.991 15.7894 15.9995 15.6289 15.9995 15.4662C15.9995 14.863 15.8832 14.2881 15.6789 13.7559C15.232 14.8199 14.3504 15.734 13.2736 15.9478Z" fill="#070707" fill-opacity="0.24"/>
<path d="M23.5187 17.5409C23.3299 17.4972 23.1544 17.4241 22.9886 17.334C22.555 18.1772 22.8553 19.4796 23.5182 20.2428C23.6766 20.2589 23.8377 20.2673 23.9998 20.2673C24.603 20.2673 25.1779 20.1505 25.7101 19.9468C24.6472 19.4993 23.7331 18.6177 23.5187 17.5409Z" fill="#070707" fill-opacity="0.24"/>
<path d="M22.8769 13.6612C23.0368 13.5614 23.2112 13.4863 23.3958 13.4313C23.1077 12.5331 21.9825 11.8195 20.9777 11.7422C20.3948 12.2163 19.927 12.8243 19.6172 13.5187C19.9734 13.3715 20.3489 13.2595 20.7302 13.2131C21.559 13.1109 22.3018 13.2724 22.8769 13.6612Z" fill="#070707" fill-opacity="0.24"/>
<path d="M26.7896 17.7513C26.1539 17.7513 25.5854 17.5844 25.124 17.2734C24.9641 17.3738 24.7891 17.4484 24.604 17.5034C24.8921 18.4016 26.0173 19.1152 27.0221 19.1925C27.605 18.7183 28.0728 18.1104 28.3826 17.416C28.0263 17.5631 27.6509 17.6752 27.2696 17.7216C27.1064 17.7416 26.9459 17.7513 26.7896 17.7513Z" fill="#070707" fill-opacity="0.24"/>
<path d="M21.964 16.0703C21.0658 16.3584 20.3522 17.4842 20.2749 18.4884C20.7469 19.0687 21.3517 19.5349 22.0419 19.8447C21.6056 18.7754 21.5827 17.5034 22.1939 16.5903C22.0942 16.4297 22.019 16.2548 21.964 16.0703Z" fill="#070707" fill-opacity="0.24"/>
<path d="M28.8006 7.46746H4.26663V5.33414C4.26663 5.03969 4.02772 4.80078 3.73327 4.80078H0.533363C0.238911 4.80078 0 5.03969 0 5.33414C0 5.6286 0.238911 5.86751 0.533363 5.86751H3.20004V8.00082V8.53419H1.59995C1.3055 8.53419 1.06659 8.7731 1.06659 9.06755C1.06659 9.362 1.3055 9.60091 1.59995 9.60091H3.1999V10.6676H1.59995C1.3055 10.6676 1.06659 10.9065 1.06659 11.201V15.4676C1.06659 15.7621 1.3055 16.001 1.59995 16.001H3.1999V17.0677H1.59995C1.3055 17.0677 1.06659 17.3066 1.06659 17.6011C1.06659 17.8955 1.3055 18.1344 1.59995 18.1344H3.1999V19.2012H1.59995C1.3055 19.2012 1.06659 19.4401 1.06659 19.7345V24.0012C1.06659 24.2956 1.3055 24.5345 1.59995 24.5345H3.1999V26.6678C3.1999 26.9623 3.43882 27.2012 3.73327 27.2012C4.02772 27.2012 4.26663 26.9623 4.26663 26.6678V24.0012V23.4678H6.93331V26.6678C6.93331 26.9623 7.17222 27.2012 7.46667 27.2012H19.2C19.4944 27.2012 19.7333 26.9623 19.7333 26.6678V23.4678H21.8667V26.6678C21.8667 26.9623 22.1056 27.2012 22.4 27.2012H26.6666C26.9611 27.2012 27.2 26.9623 27.2 26.6678V23.4678H28.8005C30.5648 23.4678 32 22.0326 32 20.2683V10.6664C32 8.90269 30.5649 7.46746 28.8006 7.46746V7.46746ZM2.13332 14.9341V11.7341H3.20004V14.9341H2.13332ZM2.13332 23.4675V20.2675H3.20004V22.9342V23.4675H2.13332ZM6.5648 19.0505C6.54506 19.0318 6.53281 19.0073 6.5162 18.9859C5.77701 18.004 5.33268 16.7881 5.33268 15.4675C5.33268 15.212 5.35514 14.9619 5.38808 14.7033C5.59391 13.1331 6.42118 11.7587 7.61587 10.8329C7.63507 10.8132 7.65903 10.8009 7.68094 10.7843C8.66177 10.0451 9.87878 9.60077 11.1994 9.60077C11.4549 9.60077 11.7055 9.62269 11.9653 9.65672C13.5349 9.86256 14.9087 10.6898 15.8347 11.8845C15.8544 11.9032 15.8667 11.9277 15.8833 11.949C16.6225 12.931 17.0662 14.1469 17.0662 15.4675C17.0662 15.723 17.0443 15.9731 17.0108 16.2328C17.0108 16.4291 16.9441 16.6488 16.8988 16.8387C16.8508 17.0398 16.7917 17.2382 16.7217 17.4328C16.5846 17.8168 16.4075 18.1859 16.1936 18.533C15.7339 19.2792 15.1088 19.9155 14.3738 20.3918C13.64 20.8676 12.8021 21.1774 11.9344 21.2878C11.6901 21.3187 11.4447 21.3342 11.1994 21.3342C10.9439 21.3342 10.6938 21.3123 10.4341 21.2783C8.86461 21.0723 7.49063 20.2456 6.5648 19.0505V19.0505ZM18.6667 26.1342H17.0668V25.0675C17.0668 24.773 16.8279 24.5341 16.5334 24.5341C16.239 24.5341 16.0001 24.773 16.0001 25.0675V26.1342H14.9333V25.0675C14.9333 24.773 14.6944 24.5341 14.4 24.5341C14.1055 24.5341 13.8666 24.773 13.8666 25.0675V26.1342H12.7999V25.0675C12.7999 24.773 12.561 24.5341 12.2665 24.5341C11.9721 24.5341 11.7332 24.773 11.7332 25.0675V26.1342H10.6664V25.0675C10.6664 24.773 10.4275 24.5341 10.1331 24.5341C9.83862 24.5341 9.59971 24.773 9.59971 25.0675V26.1342H8.00003V23.4675H18.6667V26.1342ZM26.1334 26.1342H25.0667V25.0675C25.0667 24.773 24.8278 24.5341 24.5333 24.5341C24.2389 24.5341 24 24.773 24 25.0675V26.1342H22.9332V23.4675H26.1333V26.1342H26.1334ZM29.8107 16.2328C29.8107 16.5785 29.6753 16.9731 29.5675 17.2985C29.4534 17.6452 29.3066 17.9806 29.1301 18.2996C28.7829 18.9262 28.32 19.4873 27.7727 19.9498C26.7242 20.8356 25.3727 21.3348 23.9994 21.3348C23.7439 21.3348 23.4938 21.3128 23.2341 21.2788C21.664 21.073 20.2901 20.2457 19.3647 19.051C19.345 19.0324 19.3327 19.0079 19.3161 18.9865C18.5769 18.0046 18.1326 16.7886 18.1326 15.468C18.1326 15.2125 18.155 14.9624 18.188 14.7038C18.3938 13.1337 19.2211 11.7593 20.4158 10.8334C20.435 10.8137 20.4589 10.8015 20.4808 10.7848C21.4622 10.0457 22.6787 9.60132 23.9993 9.60132C24.2548 9.60132 24.5054 9.62324 24.7652 9.65727C26.3348 9.8631 27.7086 10.6904 28.6346 11.8851C28.6543 11.9037 28.6666 11.9282 28.6832 11.9496C29.4224 12.9315 29.8661 14.1474 29.8661 15.468C29.8667 15.723 29.8449 15.9731 29.8107 16.2328V16.2328Z" fill="#070707" fill-opacity="0.24"/>
<path d="M24.481 13.3925C24.6698 13.4362 24.8453 13.5093 25.0111 13.5994C25.4447 12.7562 25.1444 11.4538 24.4815 10.6905C24.3231 10.6745 24.1626 10.666 23.9999 10.666C23.3967 10.666 22.8218 10.7828 22.2896 10.9866C23.353 11.4339 24.2671 12.3157 24.481 13.3925Z" fill="#070707" fill-opacity="0.24"/>
<path d="M26.0739 15.9478C26.0302 16.1345 25.9582 16.3089 25.8691 16.4732C26.2148 16.6503 26.6553 16.7212 27.1412 16.6614C27.7544 16.5873 28.3475 16.3202 28.7753 15.9478C28.7913 15.7894 28.7998 15.6289 28.7998 15.4662C28.7998 14.863 28.6835 14.2881 28.4792 13.7559C28.0323 14.8199 27.1507 15.734 26.0739 15.9478Z" fill="#070707" fill-opacity="0.24"/>
<path d="M24.0003 16.5338C24.5895 16.5338 25.067 16.0563 25.067 15.4671C25.067 14.878 24.5895 14.4004 24.0003 14.4004C23.4112 14.4004 22.9336 14.878 22.9336 15.4671C22.9336 16.0563 23.4112 16.5338 24.0003 16.5338Z" fill="#070707" fill-opacity="0.24"/>
<path d="M26.0356 14.8623C26.9338 14.5742 27.6468 13.4484 27.7247 12.4442C27.2533 11.8638 26.6479 11.3977 25.9577 11.0879C26.394 12.1572 26.4169 13.4292 25.8057 14.3422C25.9054 14.5027 25.9806 14.6778 26.0356 14.8623Z" fill="#070707" fill-opacity="0.24"/>
</svg>
