<svg width="32" height="32" viewBox="0 0 32 32" fill="none" xmlns="http://www.w3.org/2000/svg">
<path d="M25.9377 0H6.0502C4.9252 0 4.0127 0.91875 4.0127 2.0375V29.9562C4.0127 31.0812 4.93145 31.9937 6.0502 31.9937H25.9502C27.0752 31.9937 27.9877 31.075 27.9877 29.9562V2.05C27.9939 0.91875 27.0752 0 25.9377 0ZM6.25645 1.21875C6.79395 1.21875 7.2377 1.6625 7.2377 2.2C7.2377 2.7375 6.79395 3.18125 6.25645 3.18125C5.71895 3.18125 5.2752 2.7375 5.2752 2.2C5.2752 1.6625 5.7127 1.21875 6.25645 1.21875ZM6.25645 30.7938C5.71895 30.7938 5.2752 30.35 5.2752 29.8125C5.2752 29.275 5.71895 28.8312 6.25645 28.8312C6.79395 28.8312 7.2377 29.275 7.2377 29.8125C7.2377 30.35 6.79395 30.7938 6.25645 30.7938ZM22.0564 27.9C22.0564 28.4125 21.6314 28.8375 21.1189 28.8375H10.8502C10.3377 28.8375 9.9127 28.4125 9.9127 27.9V22.3125C9.9127 21.8 10.3377 21.375 10.8502 21.375H21.1127C21.6252 21.375 22.0502 21.8 22.0502 22.3125V27.9H22.0564ZM15.9939 19.725C11.1502 19.725 7.23145 15.8 7.23145 10.9625C7.23145 6.125 11.1627 2.20625 15.9939 2.20625C20.8252 2.20625 24.7564 6.13125 24.7564 10.9688C24.7564 15.8062 20.8377 19.725 15.9939 19.725ZM25.7314 30.7938C25.1939 30.7938 24.7502 30.35 24.7502 29.8125C24.7502 29.275 25.1939 28.8312 25.7314 28.8312C26.2689 28.8312 26.7127 29.275 26.7127 29.8125C26.7127 30.35 26.2814 30.7938 25.7314 30.7938ZM25.7314 3.175C25.1939 3.175 24.7502 2.73125 24.7502 2.19375C24.7502 1.65625 25.1939 1.2125 25.7314 1.2125C26.2689 1.2125 26.7127 1.65625 26.7127 2.19375C26.7127 2.74375 26.2814 3.175 25.7314 3.175Z" fill="#070707" fill-opacity="0.24"/>
<path d="M25.7313 30.4508C26.0833 30.4508 26.3687 30.1654 26.3687 29.8133C26.3687 29.4612 26.0833 29.1758 25.7313 29.1758C25.3792 29.1758 25.0938 29.4612 25.0938 29.8133C25.0938 30.1654 25.3792 30.4508 25.7313 30.4508Z" fill="#070707" fill-opacity="0.24"/>
<path d="M6.40218 30.4322C6.74483 30.3513 6.95701 30.008 6.8761 29.6653C6.79519 29.3227 6.45183 29.1105 6.10918 29.1914C5.76654 29.2723 5.55436 29.6157 5.63527 29.9583C5.71618 30.301 6.05953 30.5131 6.40218 30.4322Z" fill="#070707" fill-opacity="0.24"/>
<path d="M26.18 2.64609C26.4289 2.39713 26.4289 1.99349 26.18 1.74454C25.931 1.49558 25.5274 1.49558 25.2784 1.74454C25.0295 1.99349 25.0295 2.39713 25.2784 2.64609C25.5274 2.89505 25.931 2.89505 26.18 2.64609Z" fill="#070707" fill-opacity="0.24"/>
<path d="M6.25664 2.83164C6.60872 2.83164 6.89414 2.54622 6.89414 2.19414C6.89414 1.84206 6.60872 1.55664 6.25664 1.55664C5.90456 1.55664 5.61914 1.84206 5.61914 2.19414C5.61914 2.54622 5.90456 2.83164 6.25664 2.83164Z" fill="#070707" fill-opacity="0.24"/>
<path d="M13.5938 24.8383H12.5751V22.4258H12.1001V28.0008H12.5751V25.2008H13.5938V28.0008H14.0688V22.4258H13.5938V24.8383Z" fill="#070707" fill-opacity="0.24"/>
<path d="M16.9004 23.0309C16.7691 22.6184 16.4441 22.4121 15.9441 22.4121H15.0879V27.9996H15.9316C16.3316 27.9996 16.6191 27.8746 16.7879 27.6371C16.9566 27.3996 17.0379 26.9871 17.0379 26.3996V24.0059C17.0129 23.5996 16.9816 23.2809 16.9004 23.0309ZM16.4566 27.2371C16.3754 27.4746 16.2066 27.5996 15.9441 27.5996H15.5504V22.8184H15.9754C16.1691 22.8184 16.3129 22.9121 16.4066 23.0871C16.5004 23.2621 16.5504 23.5621 16.5504 23.9621V26.3559C16.5504 26.7559 16.5191 27.0434 16.4566 27.2371Z" fill="#070707" fill-opacity="0.24"/>
<path d="M19.769 23.0309C19.6378 22.6184 19.3128 22.4121 18.8128 22.4121H17.9565V27.9996H18.8003C19.2003 27.9996 19.4878 27.8746 19.6565 27.6371C19.819 27.3996 19.9065 26.9871 19.9065 26.3996V24.0059C19.8815 23.5996 19.8378 23.2809 19.769 23.0309ZM19.3253 27.2371C19.244 27.4746 19.0753 27.5996 18.8128 27.5996H18.419V22.8184H18.844C19.0378 22.8184 19.1815 22.9121 19.2753 23.0871C19.369 23.2621 19.419 23.5621 19.419 23.9621V26.3559C19.419 26.7559 19.3878 27.0434 19.3253 27.2371Z" fill="#070707" fill-opacity="0.24"/>
<path d="M18.0729 11.6596C18.456 10.5102 17.8348 9.26786 16.6853 8.88476C15.5359 8.50166 14.2936 9.12288 13.9105 10.2723C13.5274 11.4217 14.1486 12.6641 15.298 13.0472C16.4474 13.4303 17.6898 12.8091 18.0729 11.6596Z" fill="#070707" fill-opacity="0.24"/>
</svg>
