<svg width="32" height="14" viewBox="0 0 32 14" fill="none" xmlns="http://www.w3.org/2000/svg">
<path d="M32 5.00063V1.00063C32 0.600631 31.7334 0.333984 31.3334 0.333984H0.666647C0.266647 0.333984 0 0.600631 0 1.00063V5.00063C0 5.40063 0.266647 5.66728 0.666647 5.66728V7.00063C0.266647 7.00063 0 7.26728 0 7.66728V10.3339C0 10.734 0.266647 11.0006 0.666647 11.0006V13.0006C0.666647 13.4006 0.933294 13.6673 1.33329 13.6673H4H6.66665H9.33329C9.73329 13.6673 9.99994 13.4006 9.99994 13.0006V11.0006H11.3333V13.0006C11.3333 13.4006 11.5999 13.6673 11.9999 13.6673H14.6666H17.3332H20H22.6666H25.3333H28H30.6666C31.0666 13.6673 31.3333 13.4006 31.3333 13.0006V11.0006C31.7333 11.0006 31.9999 10.734 31.9999 10.334V7.66734C31.9999 7.26734 31.7333 7.00069 31.3333 7.00069V5.66734C31.7334 5.66728 32 5.40063 32 5.00063ZM24.6666 3.66728H27.3333V7.66728H24.6666V3.66728ZM18 3.66728H20.6666V7.66728H18V3.66728ZM11.3334 3.66728H14V7.66728H11.3334V3.66728ZM4.66665 3.66728H7.33329V7.66728H4.66665V3.66728ZM2 11.0006H3.33335V12.334H2V11.0006ZM4.66665 11.0006H6V12.334H4.66665V11.0006ZM8.66665 12.334H7.33329V11.0006H8.66665V12.334ZM12.6666 11.0006H14V12.334H12.6666V11.0006ZM15.3334 11.0006H16.6667V12.334H15.3334V11.0006ZM18 11.0006H19.3334V12.334H18V11.0006ZM20.6666 11.0006H22V12.334H20.6666V11.0006ZM23.3334 11.0006H24.6667V12.334H23.3334V11.0006ZM26 11.0006H27.3334V12.334H26V11.0006ZM30 12.334H28.6666V11.0006H30V12.334Z" fill="#070707" fill-opacity="0.24"/>
</svg>
