<svg xmlns="http://www.w3.org/2000/svg" viewBox="0 0 440 126.49"><defs><style>.cls-1{fill:#fff;}.cls-2{fill:#0098fe;}</style></defs><g id="Слой_2" data-name="Слой 2"><g id="Слой_1-2" data-name="Слой 1"><polygon class="cls-1" points="196.55 37.06 225.04 37.06 225.04 24.59 196.55 24.59 196.55 14.29 233.18 14.29 233.18 1.04 179.49 1.04 179.49 61.65 234.56 61.65 234.56 48.4 196.55 48.4 196.55 37.06"/><path class="cls-1" d="M260.78,49.53H288.4l4.15,12.12h17.32L287.62,1H262.08L239.91,61.65h16.71ZM274.63,9.44,284,36.71H265.19Z"/><path class="cls-1" d="M351.07,48.62a28.44,28.44,0,0,1-8.66,1.17q-13.68,0-14.89-9.61l-15.93.52q1.29,22,30.65,22,13.59,0,21.51-4.72t7.93-14.42q0-7-4.33-10.91c-2.89-2.59-7.19-4.68-12.9-6.23L338,21.9a18.73,18.73,0,0,1-5.19-2,3.19,3.19,0,0,1-1.65-2.73c0-1.26.8-2.29,2.39-3.07a15.25,15.25,0,0,1,6.62-1.17q6.4,0,9.52,2.34a8.73,8.73,0,0,1,3.64,5.8l16-.78a19.18,19.18,0,0,0-8.79-15Q352.63,0,340.59,0a44,44,0,0,0-13,1.78,20.77,20.77,0,0,0-9.57,6,15.23,15.23,0,0,0-3.81,10.56q0,12.48,15.07,16.63l17.23,4.68A30.06,30.06,0,0,1,352.84,42a3.25,3.25,0,0,1,1.86,2.9Q354.7,47.45,351.07,48.62Z"/><polygon class="cls-1" points="396.97 61.65 413.94 61.65 413.94 38.79 440 1.04 421.04 1.04 405.63 25.54 390.47 1.04 370.9 1.04 396.97 38.79 396.97 61.65"/><path class="cls-2" d="M204.33,106.18H219v6.51a47.29,47.29,0,0,1-12.21,1.67q-8.26,0-12.51-4T190,99.05a16.58,16.58,0,0,1,3.6-11q3.6-4.34,10.5-4.33a16.21,16.21,0,0,1,7.77,1.78,10.35,10.35,0,0,1,4.66,4.74l14.41-1.06A20.33,20.33,0,0,0,222.1,76.3q-7-4.69-18-4.7-13.65,0-21.34,7.32t-7.7,20.13q0,12.89,8.19,20.17t23.2,7.27a68.86,68.86,0,0,0,26-5.3V96.32H204.33Z"/><path class="cls-2" d="M256.31,72.51,236.9,125.58h14.63L255.17,115h24.19L283,125.58h15.16L278.68,72.51ZM259,103.75l8.26-23.88,8.19,23.88Z"/><polygon class="cls-2" points="340.12 116.33 330.19 72.51 304.19 72.51 304.19 125.58 318.37 125.58 318.37 81.46 329.89 125.58 349.98 125.58 361.5 81.46 361.5 125.58 375.68 125.58 375.76 72.51 349.9 72.51 340.12 116.33"/><polygon class="cls-2" points="402.28 104.05 427.23 104.05 427.23 93.14 402.28 93.14 402.28 84.11 434.35 84.11 434.35 72.51 387.35 72.51 387.35 125.58 435.57 125.58 435.57 113.98 402.28 113.98 402.28 104.05"/><polygon class="cls-1" points="20.74 21.79 20.74 42.49 47.47 42.49 39.92 63.23 20.48 63.23 20.74 83.98 53.04 83.98 45.5 104.72 0 104.72 0 1.05 83.3 1.05 75.68 21.79 20.74 21.79"/><polygon class="cls-2" points="120.66 63.23 120.66 125.46 37.95 125.46 45.5 104.72 99.91 104.72 99.91 83.98 73.6 83.98 81.14 63.23 120.66 63.23"/><polygon class="cls-2" points="116.86 42.49 68.06 42.49 75.68 21.79 124.41 21.79 116.86 42.49"/></g></g></svg>