<svg width="21" height="20" viewBox="0 0 21 20" fill="none" xmlns="http://www.w3.org/2000/svg">
<path d="M14.2154 5.89337L19.8978 6.71297C20.3746 6.79103 20.772 7.10326 20.9309 7.57161C21.0899 8.00093 20.9707 8.50831 20.613 8.82054L16.4804 12.8405L17.4738 18.5387C17.5533 19.0071 17.3546 19.4754 16.9572 19.7486C16.5599 20.0609 16.0433 20.0609 15.6062 19.8657L10.5199 17.1727L5.39381 19.8657C4.99645 20.0609 4.44013 20.0609 4.0825 19.7486C3.68513 19.4754 3.48645 19.0071 3.56592 18.5387L4.5196 12.8405L0.386972 8.82054C0.0293399 8.50831 -0.0898707 8.00093 0.0690767 7.57161C0.228024 7.10326 0.625393 6.79103 1.10223 6.71297L6.82434 5.89337L9.3675 0.702521C9.56618 0.273202 10.0033 0 10.5199 0C10.9967 0 11.4338 0.273202 11.6325 0.702521L14.2154 5.89337Z" fill="#0099FF"/>
</svg>
