<svg width="32" height="28" viewBox="0 0 32 28" fill="none" xmlns="http://www.w3.org/2000/svg">
<path d="M28 6C29.125 6 30.0625 6.39583 30.8125 7.1875C31.6042 7.9375 32 8.875 32 10V24C32 25.125 31.6042 26.0625 30.8125 26.8125C30.0625 27.6042 29.125 28 28 28H4C2.875 28 1.91667 27.6042 1.125 26.8125C0.375 26.0625 0 25.125 0 24V4C0 2.875 0.375 1.9375 1.125 1.1875C1.91667 0.395833 2.875 0 4 0H27C27.8333 0 28.5417 0.291667 29.125 0.875C29.7083 1.45833 30 2.16667 30 3V4H5C4.70833 4 4.45833 4.10417 4.25 4.3125C4.08333 4.47917 4 4.70833 4 5C4 5.29167 4.08333 5.54167 4.25 5.75C4.45833 5.91667 4.70833 6 5 6H28ZM24.5625 18.4375C24.9792 18.8125 25.4583 19 26 19C26.5417 19 27 18.8125 27.375 18.4375C27.7917 18.0208 28 17.5417 28 17C28 16.4583 27.7917 16 27.375 15.625C27 15.2083 26.5417 15 26 15C25.4583 15 24.9792 15.2083 24.5625 15.625C24.1875 16 24 16.4583 24 17C24 17.5417 24.1875 18.0208 24.5625 18.4375Z" fill="#0099FF"/>
</svg>
