<svg width="21" height="20" viewBox="0 0 21 20" fill="none" xmlns="http://www.w3.org/2000/svg">
<path d="M10.4801 0C10.8781 0 11.1964 0.234161 11.3556 0.546375L14.1015 6.04916L20.1902 6.94677C20.5483 6.9858 20.8269 7.25899 20.9463 7.5712C21.0657 7.92244 20.9861 8.27368 20.7075 8.54687L16.2902 12.8398L17.3249 18.889C17.4045 19.2402 17.2453 19.6305 16.9667 19.8256C16.6484 20.0208 16.2504 20.0598 15.9321 19.9037L10.4801 17.0157L5.02814 19.9037C4.70978 20.0598 4.35162 20.0208 4.03326 19.8256C3.75469 19.6305 3.59551 19.2402 3.6353 18.889L4.70978 12.8398L0.292496 8.54687C0.0139284 8.27368 -0.0656623 7.92244 0.0537237 7.5712C0.17311 7.25899 0.451677 6.9858 0.809835 6.94677L6.89852 6.04916L9.6444 0.546375C9.80358 0.234161 10.1219 0 10.4801 0ZM10.4801 3.08312L8.41074 7.33704C8.25156 7.61023 8.01279 7.80536 7.69443 7.84439L2.95878 8.50785L6.38118 11.8251C6.61995 12.0593 6.69955 12.3715 6.65975 12.6837L5.86384 17.3279L10.0424 15.1424C10.3209 14.9863 10.6791 14.9863 10.9576 15.1424L15.1362 17.3279L14.3403 12.6837C14.2607 12.3715 14.38 12.0593 14.6188 11.8251L18.0014 8.50785L13.3056 7.84439C12.9872 7.80536 12.7086 7.61023 12.5893 7.33704L10.4801 3.08312Z" fill="#070707" fill-opacity="0.24"/>
</svg>
