<svg width="24" height="24" viewBox="0 0 24 24" fill="none" xmlns="http://www.w3.org/2000/svg">
<path d="M18 21V13.6875L21 10.6875V21C21 21.8438 20.7031 22.5469 20.1094 23.1094C19.5156 23.7031 18.8125 24 18 24H3C2.15625 24 1.4375 23.7031 0.84375 23.1094C0.28125 22.5469 0 21.8438 0 21V6C0 5.15625 0.28125 4.45312 0.84375 3.89062C1.4375 3.29688 2.15625 3 3 3H13.3125L10.3125 6H3V21H18ZM23.3438 1.96875C23.7812 2.40625 24 2.9375 24 3.5625C24 4.1875 23.7812 4.71875 23.3438 5.15625L21.5156 6.98438L17.0156 2.48438L18.8438 0.65625C19.2812 0.21875 19.8125 0 20.4375 0C21.0625 0 21.5938 0.21875 22.0312 0.65625L23.3438 1.96875ZM6.89062 12.8438C6.95312 12.625 7.0625 12.4375 7.21875 12.2812L15.9844 3.51562L20.4844 8.01562L11.7188 16.7812C11.5625 16.9375 11.375 17.0469 11.1562 17.1094L6.65625 18C6.46875 18.0312 6.29688 17.9844 6.14062 17.8594C6.01562 17.7031 5.96875 17.5312 6 17.3438L6.89062 12.8438Z" fill="#070707"/>
</svg>
