<svg width="16" height="16" viewBox="0 0 16 16" fill="none" xmlns="http://www.w3.org/2000/svg">
<path d="M3.25582 7H0.751344C0.31306 7 0 7.34375 0 7.75V15.25C0 15.6875 0.31306 16 0.751344 16H3.25582C3.6628 16 4.00717 15.6875 4.00717 15.25V7.75C4.00717 7.34375 3.6628 7 3.25582 7ZM2.00358 14.75C1.5653 14.75 1.25224 14.4375 1.25224 14C1.25224 13.5938 1.5653 13.25 2.00358 13.25C2.41056 13.25 2.75493 13.5938 2.75493 14C2.75493 14.4375 2.41056 14.75 2.00358 14.75ZM12.0215 2.5625C12.0215 0.25 10.5188 0 9.76747 0C9.11004 0 8.82829 1.25 8.70307 1.8125C8.51523 2.5 8.3587 3.1875 7.88911 3.65625C6.88732 4.6875 6.35512 5.96875 5.10288 7.1875C5.04027 7.28125 5.00896 7.375 5.00896 7.46875V14.1562C5.00896 14.3438 5.16549 14.5 5.35332 14.5312C5.85422 14.5312 6.51165 14.8125 7.01254 15.0312C8.01433 15.4688 9.23527 16 10.738 16H10.8319C12.178 16 13.7746 16 14.4008 15.0938C14.6825 14.7188 14.7451 14.25 14.5886 13.6875C15.1208 13.1562 15.3712 12.1562 15.1208 11.3438C15.653 10.625 15.7156 9.59375 15.4025 8.875C15.7782 8.5 16.0287 7.90625 15.9974 7.34375C15.9974 6.375 15.1834 5.5 14.1503 5.5H10.9571C11.2075 4.625 12.0215 3.875 12.0215 2.5625Z" fill="#070707"/>
</svg>
