<svg width="16" height="19" viewBox="0 0 16 19" fill="none" xmlns="http://www.w3.org/2000/svg">
<path d="M13.625 7C14.2578 7 14.7852 7.22266 15.207 7.66797C15.6523 8.08984 15.875 8.61719 15.875 9.25V16C15.875 16.6328 15.6523 17.1602 15.207 17.582C14.7852 18.0273 14.2578 18.25 13.625 18.25H2.375C1.74219 18.25 1.20312 18.0273 0.757812 17.582C0.335938 17.1602 0.125 16.6328 0.125 16V9.25C0.125 8.61719 0.335938 8.08984 0.757812 7.66797C1.20312 7.22266 1.74219 7 2.375 7H3.5V4.75C3.5 3.50781 3.93359 2.45313 4.80078 1.58594C5.69141 0.695313 6.75781 0.25 8 0.25C9.24219 0.25 10.2969 0.695313 11.1641 1.58594C12.0547 2.45313 12.5 3.50781 12.5 4.75V7H13.625ZM5.1875 4.75V7H10.8125V4.75C10.8125 3.97656 10.5312 3.32031 9.96875 2.78125C9.42969 2.21875 8.77344 1.9375 8 1.9375C7.22656 1.9375 6.55859 2.21875 5.99609 2.78125C5.45703 3.32031 5.1875 3.97656 5.1875 4.75ZM14.1875 16V9.25C14.1875 9.08594 14.1289 8.95703 14.0117 8.86328C13.918 8.74609 13.7891 8.6875 13.625 8.6875H2.375C2.21094 8.6875 2.07031 8.74609 1.95312 8.86328C1.85938 8.95703 1.8125 9.08594 1.8125 9.25V16C1.8125 16.1641 1.85938 16.293 1.95312 16.3867C2.07031 16.5039 2.21094 16.5625 2.375 16.5625H13.625C13.7891 16.5625 13.918 16.5039 14.0117 16.3867C14.1289 16.293 14.1875 16.1641 14.1875 16Z" fill="#0099FF"/>
</svg>
