<svg width="32" height="32" viewBox="0 0 32 32" fill="none" xmlns="http://www.w3.org/2000/svg">
<path d="M32 16C32 17.3846 30.8462 18.5385 29.5385 18.5385H18.4615V29.6154C18.4615 30.9231 17.3077 32 16 32C14.6154 32 13.5385 30.9231 13.5385 29.6154V18.5385H2.46154C1.07692 18.5385 0 17.3846 0 16C0 14.6923 1.07692 13.6154 2.46154 13.6154H13.5385V2.53846C13.5385 1.15385 14.6154 0 16 0C17.3077 0 18.4615 1.15385 18.4615 2.53846V13.6154H29.5385C30.8462 13.5385 32 14.6923 32 16Z" fill="#070707" fill-opacity="0.24"/>
</svg>
