<svg width="16" height="16" viewBox="0 0 16 16" fill="none" xmlns="http://www.w3.org/2000/svg">
<path d="M2.6875 2.71875C4.16667 1.23958 5.9375 0.5 8 0.5C10.0625 0.5 11.8229 1.23958 13.2812 2.71875C14.7604 4.17708 15.5 5.9375 15.5 8C15.5 10.0625 14.7604 11.8333 13.2812 13.3125C11.8229 14.7708 10.0625 15.5 8 15.5C5.9375 15.5 4.16667 14.7708 2.6875 13.3125C1.22917 11.8333 0.5 10.0625 0.5 8C0.5 5.9375 1.22917 4.17708 2.6875 2.71875ZM3.75 12.25C4.9375 13.4167 6.35417 14 8 14C9.64583 14 11.0521 13.4167 12.2188 12.25C13.4062 11.0625 14 9.64583 14 8C14 6.35417 13.4062 4.94792 12.2188 3.78125C11.0521 2.59375 9.64583 2 8 2C6.35417 2 4.9375 2.59375 3.75 3.78125C2.58333 4.94792 2 6.35417 2 8C2 9.64583 2.58333 11.0625 3.75 12.25ZM10.4688 5.46875C10.6146 5.32292 10.7917 5.25 11 5.25C11.2083 5.25 11.3854 5.32292 11.5312 5.46875C11.6771 5.61458 11.75 5.79167 11.75 6C11.75 6.20833 11.6771 6.38542 11.5312 6.53125L7.53125 10.5312C7.38542 10.6771 7.20833 10.75 7 10.75C6.79167 10.75 6.61458 10.6771 6.46875 10.5312L4.46875 8.53125C4.32292 8.38542 4.25 8.20833 4.25 8C4.25 7.79167 4.32292 7.61458 4.46875 7.46875C4.61458 7.32292 4.79167 7.25 5 7.25C5.20833 7.25 5.38542 7.32292 5.53125 7.46875L7 8.9375L10.4688 5.46875Z" fill="#0099FF"/>
</svg>
