<?xml version="1.0" encoding="utf-8"?><svg viewBox="0 0 42 84" xmlns="http://www.w3.org/2000/svg" xmlns:xlink="http://www.w3.org/1999/xlink"><style>:root>svg{display:none}:root>svg:target{display:block}</style><svg viewBox="0 0 16 17" id="add" xmlns="http://www.w3.org/2000/svg"><path d="M11.25 7.406c.234 0 .434.082.598.246a.814.814 0 01.246.598.814.814 0 01-.246.598.814.814 0 01-.598.246H8.719v2.531a.814.814 0 01-.246.598.814.814 0 01-.598.246.814.814 0 01-.598-.246.814.814 0 01-.246-.598V9.094H4.5a.814.814 0 01-.598-.246.814.814 0 01-.246-.598c0-.234.082-.434.246-.598a.814.814 0 01.598-.246h2.531V4.875c0-.234.082-.434.246-.598a.814.814 0 01.598-.246c.234 0 .434.082.598.246a.814.814 0 01.246.598v2.531h2.531zM13.5.375c.633 0 1.16.223 1.582.668.445.422.668.95.668 1.582v11.25c0 .633-.223 1.16-.668 1.582-.422.445-.95.668-1.582.668H2.25a2.203 2.203 0 01-1.617-.668C.21 15.035 0 14.507 0 13.875V2.625c0-.633.21-1.16.633-1.582A2.203 2.203 0 012.25.375H13.5zm.563 13.5V2.625a.468.468 0 00-.176-.387.468.468 0 00-.387-.175H2.25a.575.575 0 00-.422.175.523.523 0 00-.14.387v11.25c0 .164.046.305.14.422.117.094.258.14.422.14H13.5a.523.523 0 00.387-.14.575.575 0 00.175-.422z"/></svg><svg viewBox="0 0 9 5" id="arrow-down" xmlns="http://www.w3.org/2000/svg"><path d="M8.755 1.432L5.173 4.766a1.042 1.042 0 01-.65.234.935.935 0 01-.648-.234L.293 1.432A.765.765 0 01.067.521C.208.208.547 0 .913 0h7.193c.367 0 .677.208.818.52a.787.787 0 01-.169.912z"/></svg><svg viewBox="0 0 24 24" id="burger" xmlns="http://www.w3.org/2000/svg"><rect x="15" y="1" width="8" height="8" rx="3"/><rect x="1" y="1" width="8" height="8" rx="3"/><rect x="1" y="15" width="8" height="8" rx="3"/><rect x="15" y="15" width="8" height="8" rx="3"/></svg><svg viewBox="0 0 23 21" id="cart" xmlns="http://www.w3.org/2000/svg"><path d="M3.75.5c.43 0 .82.352.898.781l.079.469h16.406c.82 0 1.445.82 1.21 1.602l-2.109 7.5c-.156.546-.625.898-1.21.898H6.64l.351 1.875h12.07a.95.95 0 01.938.938c0 .546-.43.937-.938.937H6.211a.92.92 0 01-.899-.742L2.97 2.375H.938C.39 2.375 0 1.985 0 1.437 0 .93.39.5.938.5H3.75zm14.805 9.375l1.758-6.25H5.117l1.172 6.25h12.266zM5 18.625c0-1.016.82-1.875 1.875-1.875 1.016 0 1.875.86 1.875 1.875 0 1.055-.86 1.875-1.875 1.875A1.851 1.851 0 015 18.625zm15 0c0 1.055-.86 1.875-1.875 1.875a1.851 1.851 0 01-1.875-1.875c0-1.016.82-1.875 1.875-1.875 1.016 0 1.875.86 1.875 1.875z"/></svg><svg viewBox="0 0 25 24" id="copy" xmlns="http://www.w3.org/2000/svg"><path d="M23.625 3.328c.281.281.422.625.422 1.031V15c0 .813-.297 1.516-.89 2.11-.595.593-1.298.89-2.11.89h-9a2.964 2.964 0 01-3-3V3c0-.531.125-1.031.375-1.5A2.867 2.867 0 0110.547.422a2.867 2.867 0 011.5-.422h7.64c.407 0 .75.14 1.032.422l2.906 2.906zM21.797 15V6h-2.25a1.56 1.56 0 01-1.078-.422 1.564 1.564 0 01-.422-1.078V2.25h-6a.767.767 0 00-.563.234c-.125.125-.187.297-.187.516v12c0 .219.062.406.187.563a.872.872 0 00.563.187h9c.219 0 .39-.063.515-.188a.767.767 0 00.235-.562zm-9 6v-1.5h2.25V21c0 .813-.297 1.516-.89 2.11-.595.593-1.298.89-2.11.89h-9c-.813 0-1.516-.297-2.11-.89-.593-.563-.89-1.266-.89-2.11V9c0-.844.281-1.547.844-2.11A2.937 2.937 0 013.047 6h4.5v2.25h-4.5a.767.767 0 00-.563.234c-.125.125-.187.297-.187.516v12c0 .219.062.39.187.516a.767.767 0 00.563.234h9c.219 0 .39-.078.515-.234a.624.624 0 00.235-.516z" fill-opacity=".32"/></svg><svg viewBox="0 0 21 24" id="delete" xmlns="http://www.w3.org/2000/svg"><path d="M2.484 21.89L1.5 6h18l-.984 15.89a2.128 2.128 0 01-.703 1.5c-.438.407-.954.61-1.547.61H4.734a2.194 2.194 0 01-1.546-.61 2.128 2.128 0 01-.704-1.5zM20.25 1.5c.219 0 .39.078.516.234A.624.624 0 0121 2.25v1.5a.767.767 0 01-.234.563c-.125.125-.297.187-.516.187H.75a.872.872 0 01-.563-.188A.872.872 0 010 3.75v-1.5c0-.219.063-.39.188-.516A.767.767 0 01.75 1.5H6L6.563.422C6.688.14 6.905 0 7.218 0h6.562c.313 0 .531.14.656.422L15 1.5h5.25z"/></svg><svg viewBox="0 0 16 16" id="dislike" xmlns="http://www.w3.org/2000/svg"><path d="M3.256 9H.75A.741.741 0 010 8.25V.75C0 .312.313 0 .751 0h2.505c.407 0 .751.313.751.75v7.5c0 .406-.344.75-.751.75zM2.004 1.25a.723.723 0 00-.752.75c0 .406.313.75.752.75a.761.761 0 00.75-.75.741.741 0 00-.75-.75zm10.018 12.188c0 2.312-1.503 2.562-2.255 2.562-.657 0-.939-1.25-1.064-1.813-.188-.687-.344-1.374-.814-1.843-1.002-1.031-1.534-2.313-2.786-3.531a.503.503 0 01-.094-.282V1.844c0-.188.156-.344.344-.375.501 0 1.159-.282 1.66-.5C8.014.53 9.235 0 10.738 0h.094c1.346 0 2.943 0 3.569.906.281.375.344.844.188 1.406.532.532.782 1.532.532 2.344.532.719.595 1.75.281 2.469.376.375.627.969.595 1.531 0 .969-.814 1.844-1.847 1.844h-3.193c.25.875 1.064 1.625 1.064 2.938z"/></svg><svg viewBox="0 0 23 19" id="edit" xmlns="http://www.w3.org/2000/svg"><path d="M17.473 10.621l2.53 2.531-.948.95-3.48 3.48a.802.802 0 01-.317.176l-2.496.492a.335.335 0 01-.317-.105c-.07-.07-.093-.165-.07-.282l.492-2.496a.802.802 0 01.176-.316l4.43-4.43zm4.64-1.371c.258.234.387.527.387.879 0 .351-.129.656-.387.914l-1.336 1.336-2.53-2.531 1.335-1.336a1.25 1.25 0 01.914-.387c.352 0 .645.129.879.387l.738.738zm-9.422 9h.07-.14.07zM4.676 7.95c-.867-.891-1.301-1.958-1.301-3.2 0-1.242.434-2.297 1.3-3.164C5.567.696 6.634.25 7.876.25s2.297.445 3.164 1.336c.89.867 1.336 1.922 1.336 3.164 0 1.242-.445 2.309-1.336 3.2-.867.866-1.922 1.3-3.164 1.3-1.242 0-2.309-.434-3.2-1.3zM5.87 2.78a2.68 2.68 0 00-.809 1.969c0 .773.27 1.441.81 2.004.562.539 1.23.809 2.003.809.773 0 1.43-.27 1.969-.81.562-.562.844-1.23.844-2.003 0-.773-.282-1.43-.844-1.969a2.624 2.624 0 00-1.969-.844c-.773 0-1.441.282-2.004.844zm5.625 13.781l-.21 1.09a1.286 1.286 0 000 .598H1.124a1.11 1.11 0 01-.809-.352A1.052 1.052 0 010 17.125c0-1.71.598-3.164 1.793-4.36 1.219-1.218 2.684-1.828 4.394-1.828h3.375c1.665 0 3.094.575 4.29 1.723l-1.196 1.195c-.89-.82-1.922-1.23-3.094-1.23H6.188c-1.149 0-2.145.375-2.989 1.125a4.37 4.37 0 00-1.476 2.813h9.773z"/></svg><svg viewBox="0 0 24 24" id="edit-product" xmlns="http://www.w3.org/2000/svg"><path d="M18 21v-7.313l3-3V21c0 .844-.297 1.547-.89 2.11-.594.593-1.297.89-2.11.89H3a2.937 2.937 0 01-2.156-.89C.28 22.546 0 21.843 0 21V6c0-.844.281-1.547.844-2.11A2.937 2.937 0 013 3h10.313l-3 3H3v15h15zm5.344-19.031c.437.437.656.968.656 1.593a2.17 2.17 0 01-.656 1.594l-1.828 1.828-4.5-4.5L18.844.656A2.17 2.17 0 0120.437 0a2.17 2.17 0 011.594.656l1.313 1.313zM6.89 12.844a1.27 1.27 0 01.328-.563l8.765-8.765 4.5 4.5-8.765 8.765a1.278 1.278 0 01-.563.328l-4.5.891a.629.629 0 01-.515-.14.629.629 0 01-.141-.516l.89-4.5z"/></svg><svg viewBox="0 0 18 17" id="exit" xmlns="http://www.w3.org/2000/svg"><path d="M5.906 14.438c.235 0 .434.082.598.246a.814.814 0 01.246.597.814.814 0 01-.246.598.814.814 0 01-.598.246H3.375c-.938 0-1.734-.328-2.39-.984C.327 14.484 0 13.687 0 12.75v-9c0-.938.328-1.734.984-2.39C1.641.702 2.438.374 3.375.374h2.531c.235 0 .434.082.598.246a.814.814 0 01.246.598.814.814 0 01-.246.597.814.814 0 01-.598.246H3.375c-.469 0-.867.165-1.195.493a1.627 1.627 0 00-.493 1.195v9c0 .469.165.867.493 1.195.328.328.726.492 1.195.492h2.531zM17.72 7.652a.803.803 0 01.281.633.766.766 0 01-.281.598l-5.344 4.71a1.258 1.258 0 01-1.3.177c-.446-.211-.669-.563-.669-1.055V10.78h-4.22c-.257 0-.492-.058-.703-.176a1.884 1.884 0 01-.527-.527 1.423 1.423 0 01-.176-.703v-2.25c0-.398.13-.727.387-.984a1.389 1.389 0 011.02-.422h4.218V3.785c0-.492.223-.844.668-1.055.469-.21.903-.152 1.301.176l5.344 4.746zm-5.625 3.903L15.89 8.25l-3.797-3.305v2.461H6.469v1.688h5.625v2.46z"/></svg><svg viewBox="0 0 24 18" id="eye" xmlns="http://www.w3.org/2000/svg"><path d="M23.875 8.317c.083.214.125.442.125.683 0 .241-.042.469-.125.683-1.167 2.518-2.806 4.54-4.917 6.067C16.848 17.25 14.528 18 12 18c-2.528 0-4.847-.75-6.958-2.25C2.93 14.223 1.292 12.2.125 9.683A1.868 1.868 0 010 9c0-.241.042-.469.125-.683C1.292 5.799 2.931 3.79 5.042 2.29 7.152.763 9.472 0 12 0c2.528 0 4.847.763 6.958 2.29 2.111 1.5 3.75 3.51 4.917 6.027zM6.208 14.183c1.778 1.259 3.709 1.888 5.792 1.888 2.083 0 4.014-.629 5.792-1.888C19.569 12.897 20.972 11.17 22 9c-1.028-2.17-2.43-3.884-4.208-5.143C16.014 2.571 14.083 1.93 12 1.93c-2.083 0-4.014.642-5.792 1.928C4.431 5.117 3.028 6.83 2 9c1.028 2.17 2.43 3.897 4.208 5.183zm2-8.8C9.264 4.367 10.528 3.858 12 3.858s2.722.51 3.75 1.527c1.056.991 1.583 2.196 1.583 3.616 0 .938-.236 1.808-.708 2.612a5.108 5.108 0 01-1.958 1.848 5.325 5.325 0 01-2.667.683c-1.472 0-2.736-.496-3.792-1.487C7.181 11.638 6.667 10.42 6.667 9s.514-2.625 1.541-3.616zm1.417 5.907a3.38 3.38 0 002.375.924c.917 0 1.694-.308 2.333-.924.667-.643 1-1.406 1-2.29a2.94 2.94 0 00-.458-1.607 2.772 2.772 0 00-1.208-1.165A3.222 3.222 0 0012 5.786h-.083c.055.24.083.455.083.643 0 .723-.264 1.339-.792 1.848-.5.482-1.125.723-1.875.723-.194 0-.416-.027-.666-.08V9c0 .884.32 1.647.958 2.29z"/></svg><svg viewBox="0 0 42 84" id="hero-arrow" xmlns="http://www.w3.org/2000/svg"><path d="M.935.822C.187 1.385 0 2.135 0 2.886c0 .75.187 1.5.748 2.063l34.05 36.957L.934 79.051a2.797 2.797 0 00.187 4.127c1.123 1.126 2.994 1.126 4.116-.188l35.92-39.02c1.123-1.126 1.123-2.814 0-3.94L5.238 1.01C3.928-.303 2.058-.303.935.822z"/></svg><svg viewBox="0 0 16 16" id="like" xmlns="http://www.w3.org/2000/svg"><path d="M3.256 7H.75a.741.741 0 00-.75.75v7.5c0 .438.313.75.751.75h2.505a.741.741 0 00.751-.75v-7.5A.761.761 0 003.256 7zm-1.252 7.75a.723.723 0 01-.752-.75c0-.406.313-.75.752-.75a.76.76 0 01.75.75.74.74 0 01-.75.75zM12.022 2.562C12.021.25 10.518 0 9.767 0c-.657 0-.939 1.25-1.064 1.813-.188.687-.344 1.375-.814 1.843C6.887 4.687 6.355 5.97 5.103 7.187a.503.503 0 00-.094.282v6.687c0 .188.156.344.344.375.501 0 1.159.281 1.66.5 1.001.438 2.222.969 3.725.969h.094c1.346 0 2.943 0 3.569-.906.281-.375.344-.844.188-1.406.532-.532.782-1.532.532-2.344.532-.719.595-1.75.281-2.469.376-.375.627-.969.595-1.531 0-.969-.814-1.844-1.847-1.844h-3.193c.25-.875 1.064-1.625 1.064-2.938z"/></svg><svg viewBox="0 0 20 19" id="liked" xmlns="http://www.w3.org/2000/svg"><path d="M9.531 2.781l.43.469.469-.43c1.289-1.289 3.125-1.875 4.883-1.562A5.582 5.582 0 0120 6.766v.195a5.91 5.91 0 01-1.875 4.297l-7.07 6.601c-.274.274-.664.391-1.055.391-.43 0-.82-.117-1.094-.39l-7.07-6.602C.664 10.164 0 8.602 0 6.96v-.195C0 4.03 1.953 1.687 4.648 1.258 6.406.945 8.242 1.53 9.531 2.78c0 .04-.039 0 0 0zm.43 3.125L8.203 4.11a3.82 3.82 0 00-3.242-1.015 3.697 3.697 0 00-3.086 3.672v.195c0 1.133.43 2.187 1.25 2.93L10 16.297l6.836-6.406a3.93 3.93 0 001.289-2.93v-.195c0-1.836-1.328-3.36-3.125-3.672a3.82 3.82 0 00-3.242 1.015L9.96 5.906z"/></svg><svg viewBox="0 0 16 19" id="pass" xmlns="http://www.w3.org/2000/svg"><path d="M13.625 7c.633 0 1.16.223 1.582.668.445.422.668.95.668 1.582V16c0 .633-.223 1.16-.668 1.582-.422.445-.95.668-1.582.668H2.375a2.203 2.203 0 01-1.617-.668C.336 17.16.125 16.632.125 16V9.25c0-.633.21-1.16.633-1.582A2.203 2.203 0 012.375 7H3.5V4.75c0-1.242.434-2.297 1.3-3.164C5.692.696 6.759.25 8 .25c1.242 0 2.297.445 3.164 1.336.89.867 1.336 1.922 1.336 3.164V7h1.125zM5.187 4.75V7h5.625V4.75c0-.773-.28-1.43-.843-1.969A2.624 2.624 0 008 1.937c-.773 0-1.441.282-2.004.844a2.68 2.68 0 00-.809 1.969zm9 11.25V9.25a.468.468 0 00-.175-.387.468.468 0 00-.387-.175H2.375a.575.575 0 00-.422.175.523.523 0 00-.14.387V16c0 .164.046.293.14.387a.575.575 0 00.422.175h11.25a.468.468 0 00.387-.175.468.468 0 00.175-.387z"/></svg><svg viewBox="0 0 32 32" id="plus" xmlns="http://www.w3.org/2000/svg"><path d="M32 16c0 1.385-1.154 2.538-2.462 2.538H18.462v11.077C18.462 30.923 17.308 32 16 32c-1.385 0-2.461-1.077-2.461-2.385V18.54H2.462C1.077 18.538 0 17.384 0 16c0-1.308 1.077-2.385 2.462-2.385h11.077V2.538C13.539 1.154 14.615 0 16 0c1.308 0 2.462 1.154 2.462 2.538v11.077h11.076C30.846 13.54 32 14.692 32 16z" fill-opacity=".24"/></svg><svg viewBox="0 0 14 12" id="review-arrow" xmlns="http://www.w3.org/2000/svg"><path d="M.305 6.715l5.003 5.004a.97.97 0 00.688.281.99.99 0 00.719-.281.964.964 0 000-1.408L3.432 6.997h9.567a.988.988 0 001.001-1c0-.533-.438-1.002-1-1.002H3.431l3.283-3.283a.964.964 0 000-1.407.964.964 0 00-1.407 0L.305 5.308a.964.964 0 000 1.407z"/></svg><svg viewBox="0 0 18 18" id="search" xmlns="http://www.w3.org/2000/svg"><path d="M17.736 16.559l-4.716-4.711c1.021-1.23 1.584-2.813 1.584-4.536C14.604 3.306 11.296 0 7.284 0 3.238 0 0 3.305 0 7.313c0 4.042 3.273 7.312 7.284 7.312 1.69 0 3.273-.563 4.54-1.582l4.716 4.71a.848.848 0 00.633.247c.211 0 .422-.07.563-.246.352-.317.352-.844 0-1.195zM1.69 7.312a5.622 5.622 0 015.63-5.625c3.097 0 5.631 2.532 5.631 5.625a5.622 5.622 0 01-5.63 5.625 5.6 5.6 0 01-5.63-5.624z"/></svg><svg viewBox="0 0 20 20" id="trash" xmlns="http://www.w3.org/2000/svg"><g clip-path="url(#sa)" fill-opacity=".3"><path d="M18.572 2.857h-5v-.714A2.144 2.144 0 0011.428 0H8.572C7.388 0 6.429.96 6.429 2.143v.714h-5a.714.714 0 100 1.429h.776L3.572 19.35c.033.369.343.65.714.649h11.428c.37.002.681-.28.715-.65l1.366-15.064h.776a.714.714 0 100-1.429zM7.857 2.143c0-.395.32-.714.715-.714h2.857c.394 0 .714.32.714.714v.714H7.857v-.714zm7.205 16.428H4.938L3.643 4.286H16.36L15.062 18.57z"/><path d="M7.857 16.381v-.003l-.714-10a.716.716 0 00-1.429.101l.715 10a.714.714 0 00.714.664h.051a.714.714 0 00.663-.762zM10 5.714a.714.714 0 00-.714.715v10a.714.714 0 101.428 0v-10A.714.714 0 0010 5.714zm3.622 0a.716.716 0 00-.765.664l-.714 10a.714.714 0 00.66.764h.053a.713.713 0 00.715-.663l.715-10a.716.716 0 00-.664-.765z"/></g><defs><clipPath id="sa"><path d="M0 0h20v20H0z"/></clipPath></defs></svg><svg viewBox="0 0 18 12" id="vk" xmlns="http://www.w3.org/2000/svg"><path d="M17.616.825c.1-.45 0-.825-.601-.825h-1.972c-.502 0-.736.3-.87.637 0 0-1.002 2.738-2.406 4.538-.468.487-.669.675-.936.675-.1 0-.301-.188-.301-.637V.825c0-.563-.134-.825-.568-.825H6.886c-.334 0-.501.263-.501.525 0 .525.702.638.769 2.138v3.262c0 .713-.1.862-.368.862-.669 0-2.273-2.774-3.243-5.925-.2-.6-.4-.862-.902-.862H.669C.134 0 0 .3 0 .637c0 .6.669 3.488 3.109 7.35C4.747 10.614 7.053 12 9.126 12c1.237 0 1.404-.3 1.404-.825 0-2.513-.1-2.775.501-2.775.301 0 .803.188 1.973 1.463C14.34 11.363 14.574 12 15.31 12h1.972c.569 0 .836-.3.669-.938-.368-1.274-2.875-3.974-3.009-4.162-.3-.413-.2-.6 0-.975 0 0 2.407-3.825 2.674-5.1z"/></svg></svg>